<svg width="71" height="46" viewBox="0 0 71 46" fill="none" xmlns="http://www.w3.org/2000/svg">
<path d="M65.324 0.00158691H5.67489C4.34243 0.0030769 3.06452 0.533005 2.12239 1.47517C1.18023 2.41733 0.650329 3.69521 0.648804 5.02767V40.1712C0.650294 41.5037 1.18022 42.7816 2.12239 43.7237C3.06454 44.6659 4.34243 45.1958 5.67489 45.1973H65.324C66.6564 45.1958 67.9343 44.6659 68.8765 43.7237C69.8186 42.7816 70.3485 41.5037 70.3501 40.1712V5.02767C70.3486 3.69521 69.8186 2.4173 68.8765 1.47517C67.9343 0.533018 66.6564 0.00311263 65.324 0.00158691ZM45.2036 21.8536L67.8172 3.65186C68.0512 4.07302 68.1733 4.54633 68.1733 5.02805V40.1716C68.1728 40.6191 68.0666 41.0596 67.8629 41.4579L45.2036 21.8536ZM65.324 2.17954C65.5693 2.18054 65.8137 2.21332 66.0506 2.27738L42.8444 20.9598L40.7888 22.6152L40.7883 22.6157C39.2954 23.83 37.4294 24.4936 35.5049 24.4936C33.5798 24.4936 31.714 23.83 30.2209 22.6157L4.94876 2.27788C5.18567 2.21381 5.43002 2.18103 5.67536 2.18004L65.324 2.17954ZM3.13712 41.4578C2.93348 41.0595 2.82721 40.6189 2.82671 40.1715V5.02793C2.82671 4.54617 2.94889 4.07287 3.18281 3.65173L25.7952 21.8535L3.13712 41.4578ZM5.67501 43.0197C5.38298 43.0197 5.09344 42.9745 4.81531 42.8861L27.5192 23.2413L28.8487 24.3116C30.728 25.8407 33.0762 26.6757 35.499 26.6757C37.9217 26.6757 40.2697 25.8408 42.1492 24.3116L43.4782 23.2413L66.1872 42.8861C65.909 42.9745 65.619 43.0197 65.3275 43.0197H5.67501Z" fill="white"/>
</svg>
