<svg width="60" height="54" viewBox="0 0 60 54" fill="none" xmlns="http://www.w3.org/2000/svg">
<path d="M55.5776 0.901955C54.9347 0.93016 54.3089 1.10909 53.7445 1.33508C53.1859 1.55956 49.9701 2.93213 45.2212 4.9625C40.4724 6.99287 34.2992 9.63684 28.1798 12.2586C15.9411 17.5021 3.91451 22.6613 3.91451 22.6613L4.00217 22.6278C4.00217 22.6278 3.2763 22.8704 2.54037 23.3832C2.17241 23.6396 1.77654 23.9706 1.4524 24.4531C1.12827 24.9357 0.891304 25.6196 0.980604 26.3429C1.29427 28.8836 3.9274 29.6042 3.9274 29.6042L3.93771 29.6094L15.6888 33.6312C15.9884 34.6307 19.253 45.5267 19.9711 47.8341C20.3677 49.1099 20.7389 49.8458 21.1261 50.3478C21.3198 50.599 21.5229 50.7934 21.7474 50.9356C21.8366 50.9921 21.9304 51.0345 22.0233 51.0723C22.0252 51.0731 22.0264 51.0714 22.0284 51.0723C22.0398 51.0773 22.0506 51.0777 22.0619 51.0826L22.031 51.0748C22.0526 51.0836 22.0739 51.0982 22.0954 51.1058C22.1373 51.1205 22.163 51.12 22.2166 51.1316C23.5624 51.6015 24.6762 50.7294 24.6762 50.7294L24.7226 50.6933L31.9413 43.9979L43.6563 53.1322L43.8033 53.1992C45.8538 54.1097 47.7082 53.6017 48.7352 52.7661C49.7622 51.9305 50.1661 50.8531 50.1661 50.8531L50.2099 50.7397L58.8183 5.87258C59.0385 4.8688 59.0698 4.00115 58.8621 3.21711C58.6544 2.43307 58.1496 1.75152 57.5163 1.37375C56.883 0.995986 56.2205 0.873749 55.5776 0.901955ZM55.6472 3.58578C55.9083 3.57369 56.1018 3.60354 56.1628 3.63992C56.2238 3.67631 56.2512 3.67152 56.3097 3.89258C56.3683 4.11364 56.4 4.57925 56.2401 5.30797L56.235 5.32344L47.6756 49.9302C47.6553 49.9751 47.477 50.3877 47.0697 50.7191C46.6543 51.0571 46.1923 51.321 44.966 50.8067L32.1553 40.8165L31.7944 40.5329L31.7866 40.5406L27.9555 37.666L49.4854 12.3359C49.6509 12.1418 49.7565 11.9039 49.7896 11.651C49.8227 11.3981 49.7819 11.141 49.672 10.9109C49.5621 10.6807 49.3878 10.4873 49.1703 10.354C48.9529 10.2208 48.7014 10.1534 48.4465 10.16C48.1973 10.1665 47.9551 10.2433 47.7478 10.3817L16.5937 31.1511L4.82459 27.1215C4.82459 27.1215 3.65592 26.4711 3.59998 26.018C3.59688 25.9929 3.58308 26.0157 3.64381 25.9252C3.70454 25.8348 3.85719 25.6822 4.04857 25.5488C4.43134 25.2821 4.86842 25.1209 4.86842 25.1209L4.91225 25.1054L4.95607 25.0873C4.95607 25.0873 16.9833 19.9278 29.2214 14.6846C35.3404 12.063 41.5125 9.42096 46.2602 7.3911C51.0067 5.36175 54.4364 3.90104 54.7268 3.7843C55.0574 3.65191 55.3861 3.59787 55.6472 3.58578ZM41.3695 17.8067L25.0422 37.0163L25.0345 37.0241C25.009 37.0548 24.9849 37.0866 24.9623 37.1195C24.9364 37.1552 24.9123 37.1922 24.8901 37.2303C24.7984 37.386 24.7396 37.5589 24.7174 37.7382C24.7174 37.7416 24.7174 37.7451 24.7174 37.7485L22.5905 47.3134C22.5551 47.21 22.5303 47.1722 22.4925 47.0504V47.0478C21.8169 44.8771 18.7369 34.6012 18.3108 33.1801L41.3695 17.8067ZM26.8856 40.1642L29.8195 42.3659L25.5089 46.362L26.8856 40.1642Z" fill="white"/>
</svg>
