<svg width="128" height="127" viewBox="0 0 128 127" fill="none" xmlns="http://www.w3.org/2000/svg">
<path fill-rule="evenodd" clip-rule="evenodd" d="M64 5.85011e-05C77.6442 5.85011e-05 88.7631 10.8097 89.2619 24.3321L89.2796 25.2799H101.92C115.881 25.2799 127.2 36.5983 127.2 50.5599V101.12C127.2 115.081 115.881 126.4 101.92 126.4H26.0796C12.118 126.4 0.799561 115.081 0.799561 101.12V50.5599C0.799561 36.5983 12.118 25.2799 26.0796 25.2799H38.7196C38.7196 11.3183 50.038 -0.00012207 63.9996 -0.00012207L64 5.85011e-05ZM101.92 33.706H26.08C16.772 33.706 9.22635 41.2516 9.22635 50.5596V101.12C9.22635 110.428 16.772 117.973 26.08 117.973H101.92C111.228 117.973 118.774 110.428 118.774 101.12V50.5596C118.774 41.2516 111.228 33.706 101.92 33.706ZM38.72 84.266C41.0469 84.266 42.9336 86.1528 42.9336 88.4796V96.906C42.9336 99.2335 41.0468 101.12 38.72 101.12H30.2936C27.9661 101.12 26.08 99.2336 26.08 96.906V88.4796C26.08 86.1527 27.9659 84.266 30.2936 84.266H38.72ZM80.8541 88.4796C83.181 88.4796 85.0668 90.3656 85.0668 92.6932C85.0668 95.0201 83.1808 96.906 80.8541 96.906H59.7868C57.4599 96.906 55.5741 95.02 55.5741 92.6932C55.5741 90.3657 57.46 88.4796 59.7868 88.4796H80.8541ZM38.72 50.5596C41.0469 50.5596 42.9336 52.4456 42.9336 54.7732V63.1996C42.9336 65.5265 41.0468 67.4132 38.72 67.4132H30.2936C27.9661 67.4132 26.08 65.5264 26.08 63.1996V54.7732C26.08 52.4457 27.9659 50.5596 30.2936 50.5596H38.72ZM97.7059 54.7732C100.033 54.7732 101.92 56.6592 101.92 58.986C101.92 61.3135 100.034 63.1996 97.7059 63.1996H59.7859C57.459 63.1996 55.5732 61.3136 55.5732 58.986C55.5732 56.6591 57.4591 54.7732 59.7859 54.7732H97.7059ZM64 8.42507C54.692 8.42507 47.1464 15.9707 47.1464 25.2787H80.8545L80.8334 24.4376C80.3952 15.52 73.0268 8.42516 64.0009 8.42516L64 8.42507Z" fill="white"/>
</svg>
