<svg width="45" height="45" viewBox="0 0 45 45" fill="none" xmlns="http://www.w3.org/2000/svg">
<path d="M38.0541 43.1616C39.4031 43.1616 44.0416 40.7374 43.7829 34.7499C43.7375 33.6948 43.1445 32.7272 42.2322 32.1425C41.194 31.4772 39.5829 30.444 37.4812 29.1C35.5643 27.8753 33.088 27.788 31.0888 28.8833L29.2694 29.6628C28.3218 30.3281 27.1072 30.4608 26.0387 30.014C24.3755 29.3184 21.8202 27.9711 19.4246 25.5754C17.0289 23.1797 15.6815 20.6244 14.986 18.9612C14.5391 17.8928 14.6718 16.6781 15.3371 15.7306L16.1166 13.9112C17.212 11.912 17.1263 9.43563 15.8999 7.51875C14.5559 5.41707 13.5227 3.80595 12.8574 2.76771C12.2728 1.85547 11.3051 1.26243 10.2501 1.21707C4.26256 0.958352 1.83832 5.59683 1.83832 6.94587C1.83832 7.87995 0.55984 19.1074 13.2254 31.7729C25.8909 44.4384 37.12 43.1616 38.0541 43.1616Z" stroke="white" stroke-width="2" stroke-miterlimit="10"/>
</svg>
